<?xml version="1.0" standalone="no"?>
<!DOCTYPE svg PUBLIC "-//W3C//DTD SVG 1.1//EN" "http://www.w3.org/Graphics/SVG/1.1/DTD/svg11.dtd">
<svg t="1752151854314" class="icon" viewBox="0 0 1024 1024" version="1.1" xmlns="http://www.w3.org/2000/svg" p-id="13664" xmlns:xlink="http://www.w3.org/1999/xlink" width="16" height="16"><path d="M118.32562 1024h-42.016391a169.558529 169.558529 0 0 1-2.985936-8.403278c-9.299059-28.409052-25.636396-63.557788-29.859364-91.881527-6.313123-41.973734 33.613112-44.319827 59.249509-62.491383 39.457016-28.153114 70.510754-43.72264 113.294957-69.103098 12.711558-7.59281 50.974199-26.61749 55.239822-35.319362 8.659215-17.403743-14.887026-41.888421-21.114835-55.538416-9.725621-21.584054-14.887026-39.926235-16.209369-61.169039-35.532643-5.587967-62.74732-26.745459-79.553876-50.547637-27.172021-39.41436-45.940764-112.356519-22.607804-167.894936 1.919531-4.350936 10.962652-13.010151 12.284995-19.70718 2.559374-13.223432-4.521561-30.712488-5.20406-44.789045-2.60203-72.174347 12.284995-134.367136 61.467633-156.121815 19.963117-78.48747 91.113715-104.635741 158.382595-143.580883 25.081865-14.588432 52.808417-23.972803 81.473407-34.42358 102.332305-37.409517 259.989744-30.371238 344.832992 33.399831 36.044517 26.95874 93.843714 84.03278 114.531988 125.366671 54.429354 108.986677 50.462324 291.128795 12.370308 423.789681-5.204061 17.915618-12.540933 44.021233-23.034367 65.392006-7.208903 14.887026-29.688739 44.789045-26.873427 58.012478 2.729999 13.394057 51.230137 49.907793 61.72357 59.46279 18.726087 18.043587 54.344042 41.589828 57.074041 63.98435 2.985936 23.802178-10.706715 56.988728-17.702337 79.980438-9.17109 30.371238-18.598118 60.657164-28.19577 90.900434L118.282963 1024z m478.858879-151.003067a336.984246 336.984246 0 0 0-89.02356-32.290769c-37.494829-6.995622-33.613112 50.675606-32.333425 85.099186 1.279687 27.385302 15.526869 56.135604 22.010616 74.349815 3.241874 8.403278 3.839061 17.489056 11.005309 19.195306 12.924839 2.900624 55.623729-13.948588 67.908724-20.474993 25.892334-13.991245 45.898107-35.959205 67.908724-50.675605 0.6825-7.25156 0.6825-14.503119 1.279687-21.669367a115.171831 115.171831 0 0 0-47.220451-11.815777c13.564682-6.398435 32.333425-6.398435 44.61842-14.161869l0.6825-8.232653c-21.328117-1.279687-29.688739-10.834683-44.021233-18.598118l-2.815311-0.725156z m235.547722 34.551549c-1.237031-21.839992-7.080935-66.543725-20.688273-74.221846-28.451708-16.635931-79.596532 33.271862-100.924649 40.224828 1.962187 6.398435 5.843904 11.517183 6.483747 20.474992a61.424976 61.424976 0 0 1 38.73186 3.924374c-12.924839 1.279687-27.129365 1.279687-35.532642 6.995622-3.199218 8.317966 0.6825 20.474992-1.279687 32.589362 29.731395 8.445934 64.709506 12.924839 102.844179 14.204526 7.080935-9.725621 9.725621-27.513271 9.085778-46.196701l1.279687 2.047499v-0.042656z m-175.914308-15.356244c-1.962187 15.996088 1.919531 21.754679 5.118748 40.224828 54.344042 16.635931 44.661077-74.221847-5.801247-40.949984l0.682499 0.6825v0.042656z m102.886836-807.098597c-69.188411-38.646548-187.602116-67.866068-261.994587-31.224363C438.204716 83.430048 356.688653 132.484716 329.559289 194.336255c25.849678 59.80404-7.166247 114.574644-9.725622 175.317121-0.810468 32.333425 15.484213 60.529196 16.849213 95.677932-8.659215 14.417807-35.575299 16.209369-54.344042 15.185619-6.313123-31.139051-17.318431-66.074506-49.822481-69.572317-45.898107-4.905467-79.553876 32.632019-81.558719 71.790441-2.559374 46.068732 36.001861 122.167453 90.004653 117.091361 21.029523-1.962187 26.190927-23.034366 49.054669-23.034366 12.370308 24.314053-19.152649 31.992175-22.522491 49.225294-0.6825 4.478905 2.559374 21.797335 4.52156 30.072645 10.066871 40.310141 32.077488 92.137465 53.661542 122.849953 27.427958 38.39061 81.260125 44.831702 139.272603 48.670762 10.322809-22.394523 48.500138-20.474992 73.582003-14.759057-29.816707-11.517183-57.585915-40.310141-80.876219-65.221381-26.532177-28.835614-53.064355-60.145289-54.386698-97.256213 49.822481 68.420599 90.559184 127.968701 181.161025 157.99869 68.591224 22.394523 148.742287-10.834683 201.166798-47.305763 21.96796-15.313588 34.978112-39.670297 50.462324-61.382321 58.183103-82.582468 85.355124-200.910861 79.596532-315.442847-2.644686-47.348419-2.644686-94.696839-18.768743-126.049171-16.806556-33.271862-73.112784-62.704663-106.768553-33.271862-6.483748-32.632019 27.129365-52.467167 66.629037-40.949985-28.451708-36.47108-57.585915-79.340595-97.682775-101.735117l0.725156 2.857968h-0.085312z m-179.582744 550.564008c26.532177 65.861225 117.517924 58.140446 194.341801 56.434197-3.62578 8.275309-11.047965 18.555462-20.04843 21.96796-24.569991 9.896246-92.564027 17.403743-126.689014-0.511875-21.839992-11.517183-35.532643-37.238892-47.519044-52.339198-5.88656-7.336872-34.295612-25.93499-0.511875-26.020303l0.469218 0.426562z m7.123591-37.110924c38.518579 19.792492 108.645427 22.095929 160.94197 20.474993 2.815311 11.389214 2.815311 25.295147 2.94328 38.945141-66.884974 3.412499-146.0976-12.924839-163.671969-59.505446h-0.213281v0.042656z m287.886921-24.996552c-20.432336 38.39061-49.395919 80.918875-109.498552 82.283874-0.981093-12.157027-1.919531-31.352332 0-38.561235 45.898107-4.393592 74.477784-27.555927 109.669177-43.38139l-0.127969-0.298593h-0.042656z m-27.982489-28.451708c-43.978577 28.153114-92.905277 58.652321-164.908999 51.614042-15.185619-13.223432-20.986867-42.69889-6.099842-62.192788 7.848747 13.351401 2.644686 37.750767 24.569991 41.376546 40.779359 7.038279 87.957154-24.740616 117.731205-35.831236 18.128899-30.413895-1.919531-41.632484-18.086243-61.126383-33.698425-39.670297-78.914032-89.578091-77.634346-149.72338 13.522026-9.597653 14.887026 14.716401 16.806556 19.195305 17.4464 40.949984 61.424976 92.777308 93.758402 127.968701 7.763435 8.957809 20.73093 16.635931 22.010617 22.394523 3.96703 16.593275-10.962652 36.428424-9.000466 47.305763l0.853125-0.938437z m-256.150683-241.69022c13.223432 23.972803 17.489056 49.012012 36.257798 66.970287 8.403278 8.147341 24.740616 18.086243 16.678588 40.523422-1.962187 5.204061-15.782806 16.721244-23.759522 19.195305-29.091551 8.360622-97.213557 1.279687-74.221847-34.55155 24.271397 0.6825 56.647478 15.356244 74.648409-1.876874-13.522026-22.394523-38.177329-65.264038-29.048895-90.857778l-0.554531 0.597188z m267.369272-0.554531h2.94328c14.247182 28.53702 25.849678 58.652321 43.296078 83.819499-11.645152 26.873427-88.511685 50.760918-87.231998 2.474061 16.806556-7.25156 45.258264-1.535624 60.145289-10.664058-8.275309-23.716866-20.688273-42.912171-18.68343-75.501534l-0.426562-0.085312h-0.042657z m-298.806916-68.932474c-61.297008-14.076557-91.881527 25.209834-110.351677 66.245131-16.593275-4.009686-9.981559-26.233584-5.843904-37.665454 11.005308-29.90202 55.197166-69.65763 91.369653-64.240288 15.484213 2.431405 36.599048 16.507962 24.825928 35.575299v0.127968-0.042656z" p-id="13665"></path></svg>
