<svg t="1764166119932" class="icon" viewBox="0 0 1024 1024" version="1.1" xmlns="http://www.w3.org/2000/svg" p-id="8858" width="16" height="16"><path d="M198.930511 446.622928c1.805996-1.625397 3.792593-3.070194 5.959789-4.153792-2.167196 0.902998-4.153792 2.347795-5.959789 4.153792z m108.901588 147.730511c2.167196 15.35097 8.849383 152.245503 101.135802 228.458554 18.782363 2.889594 37.745326 4.87619 56.708289 5.959788 10.29418-21.852557 48.039506-20.22716 72.601059-14.628571-30.88254-15.712169-57.972487-37.925926-79.644445-65.015873-28.715344-25.103351-47.858907-59.417284-53.818695-97.16261 49.303704 68.447266 89.938624 128.04515 179.696649 158.205291 67.905467 22.755556 147.008113-10.47478 199.201411-46.955909 20.046561-17.337566 37.022928-38.287125 49.845503-61.40388 59.056085-94.092416 86.507231-204.438801 78.380247-315.146384 1.625397-42.802116-4.514991-85.423633-18.240565-126.058554-16.615168-33.230335-72.601058-62.848677-105.289594-32.869136-0.541799-2.889594-0.722399-5.959788-0.541799-9.029982-5.23739 4.87619-8.488183 8.488183-8.488183 8.488183-2.708995-5.598589-4.153792-11.558377-4.514991-17.879365 0.902998-29.798942 24.922751-53.818695 54.902292-54.902293-15.53157-21.310758-33.772134-40.454321-53.999294-57.069488-71.336861-24.380952-148.27231-27.270547-221.053968-8.126984C451.589418 111.249383 368.332981 186.559436 336.005644 286.61164c-7.043386 27.089947-11.738977 54.902293-14.267372 82.714639-1.083598 32.327337 15.17037 60.500882 16.434568 95.717813-8.668783 14.447972-35.397531 16.253968-53.818695 15.17037-1.444797-7.043386-3.070194-13.906173-5.056791-20.768959-14.628571-8.126984-30.160141-14.267372-46.233509-18.240565 29.257143 11.919577 45.149912 43.885714 36.842328 74.587655-13.725573-7.765785-16.976367-42.079718-32.869136-42.982716-22.936155-1.444797-18.782363 44.427513-18.601764 71.33686-16.073369-24.019753-18.782363-54.541093-6.862786-80.908642-10.47478-5.05679-16.253968 2.167196-21.852558 7.946385-8.126984 37.925926-20.046561 68.447266 2.347796 106.734391 12.822575 14.989771 31.966138 23.116755 51.651499 21.852558 20.768959-1.986596 25.82575-22.755556 48.400705-22.574956 8.488183 1.264198 14.989771 8.488183 15.71217 17.156966zM543.695238 665.5097l-11.016578-2.167196s-11.558377-40.273721-5.959789-47.678306c2.889594-3.973192 18.962963-9.752381 41.537919 1.083597-0.1806-0.1806-26.909347 4.334392-24.561552 48.761905z m208.592593 48.942505c-40.634921 13.725573-84.701235 13.544974-125.336156-0.541799-19.143563-13.906173-35.036332-31.785538-46.955908-52.193298-5.598589-7.223986-33.952734-25.82575-0.361199-26.00635 26.186949 65.738272 116.306173 58.153086 192.158025 56.34709-3.431393 9.932981-10.47478 17.879365-19.504762 22.394357z m11.016578-58.514286c-1.805996-12.822575-1.805996-26.006349 0-38.828924 38.467725-7.585185 75.129453-22.213757 108.179189-43.343916-16.795767 46.23351-59.236684 78.380247-108.179189 82.17284z m100.774603-295.099824c-6.682187 2.167196-50.026102 27.812346-46.775308-4.514991 3.431393-19.504762 18.240564-35.036332 37.564726-39.370723-0.361199-4.87619-0.361199-9.752381 0-14.628571h2.889595c12.100176 28.895944 26.548148 56.888889 42.802116 83.798236-11.558377 26.909347-87.771429 50.748501-86.507231 2.347795 16.434568-7.223986 44.788713-1.444797 59.417284-10.655379-3.431393-9.391182-7.223986-18.240564-11.016578-27.631746l1.625396 10.655379zM674.268783 534.574956c0.722399 1.264198 1.264198 2.347795 1.625397 3.611993 3.250794-18.601764 9.391182-40.273721 20.046561-37.022928 10.47478 2.889594 17.879365 12.461376 18.240564 23.297355-12.280776 7.946384-23.839153 16.976367-34.675132 26.909347 2.347795 11.016578 5.23739 21.852557 19.143562 24.380952 40.454321 6.862787 87.590829-24.742152 116.667373-35.75873 18.059965-30.340741-1.625397-41.537919-17.879365-61.22328-33.230335-40.273721-77.838448-89.758025-76.213052-149.897707 13.544974-9.752381 14.628571 14.809171 16.615168 19.324162 24.742152 46.775309 55.985891 89.758025 93.008818 127.503351 7.765785 8.488183 20.768959 16.795767 22.213757 22.394356 4.153792 16.434568-10.835979 36.300529-9.029983 47.136508-46.414109 36.481129-104.386596 54.721693-163.262081 51.1097-17.156966-16.073369-19.865961-42.440917-6.501587-61.765079z m71.69806 84.701234c2.347795 12.822575 3.250794 25.82575 2.708995 38.828925-66.280071 3.250794-144.479718-13.003175-161.817284-59.597884 50.929101 18.240564 105.108995 25.46455 159.108289 20.768959z m-155.676896-316.049382c8.488183 24.019753 20.58836 46.414109 35.75873 66.821869 8.307584 8.126984 24.561552 18.059965 16.434568 40.634921-5.598589 8.668783-13.906173 15.53157-23.477954 19.504762-28.895944 8.488183-96.259612 1.805996-73.504056-34.313933 23.839153 1.083598 55.985891 15.53157 73.865255-1.805997-4.153792-6.501587-8.126984-13.364374-11.738977-20.22716-18.240564 11.558377-68.447266 12.100176-68.447266-17.518166 0-31.243739 48.942504-37.745326 48.942504-37.745326l0.3612 0.902998c-0.541799-5.598589 0.1806-11.197178 1.805996-16.253968z m-117.93157-107.095591c43.705115-29.798942 65.738272-12.822575 76.754851 6.862787 10.655379 4.153792 15.892769 16.253968 11.738977 26.909347-0.541799 1.083598-1.083598 2.347795-1.625397 3.250794-60.681481-14.086772-90.841623 25.46455-109.082187 66.28007-4.695591 8.488183-5.05679 2.528395-7.765785-5.05679-1.083598-1.444797-1.805996-3.250794-2.167196-5.05679-0.902998-1.625397-1.986596-3.070194-3.431393-4.334392-8.668783-8.849383-13.364374-55.444092 35.57813-88.855026z" fill="#F0D6B7" p-id="8859"></path><path d="M156.850794 997.451852H476.873369c-1.444797-4.87619-2.889594-9.752381-4.334392-14.447972-7.765785-23.297354-13.544974-47.136508-17.337566-71.156261-39.190123-16.976367-76.93545-37.203527-112.87478-60.500882-3.070194-2.889594-6.140388-6.140388-8.849382-9.391181L140.958025 927.920988s6.862787 27.631746 15.892769 69.530864z" fill="#335061" p-id="8860"></path><path d="M272.073369 182.766843c5.598589-1.625397 11.197178-2.708995 17.156966-3.250794 9.029982 1.264198 18.240564 1.625397 27.270547 1.083598 18.059965-4.514991 33.410935-44.969312 46.955908-60.139682 11.016578-10.11358 22.394356-19.504762 34.494533-28.354145-50.026102 17.156966-93.911817 48.761905-125.877954 90.661023z m-82.534039 204.258201c38.287125-20.22716 85.784832-5.598589 106.011993 32.688536 5.05679 9.571781 8.126984 20.22716 8.849382 31.243739 25.46455-0.722399 9.391182-31.604938 4.876191-51.651499-13.544974-58.875485 17.879365-122.085362 7.043386-177.710053-141.228924 21.130159-133.28254 129.670547-126.780952 165.429277z" fill="#6D6B6D" p-id="8861"></path><path d="M411.496296 67.724868c-66.46067 18.782363-151.884303 67.183069-179.15485 126.961552 13.544974-2.889594 26.728748-6.862787 39.551323-11.919577 32.146737-41.899118 75.851852-73.504056 125.697354-90.661023 2.167196-1.805996 3.973192-3.973192 5.779189-6.140388 7.043386-3.431393 17.337566-3.070194 17.879365-13.725573-2.889594-3.070194-6.140388-5.598589-9.752381-4.514991zM201.278307 255.367901c-29.257143 32.327337-23.297354 93.008818-19.685362 135.991535 2.528395-1.625397 5.23739-3.070194 7.946385-4.334392-6.501587-35.75873-14.447972-144.479718 126.961552-165.609876-1.264198-6.140388-2.889594-12.100176-5.23739-18.059965-41.899118 2.347795-81.450441 20.949559-109.985185 52.012698z" fill="#DCD9D8" p-id="8862"></path><path d="M307.832099 594.353439c-0.541799-8.488183-6.862787-15.53157-15.35097-17.156966 12.280776 24.380952-18.782363 32.146737-21.852558 49.484303 0.361199 10.29418 1.986596 20.40776 4.514992 30.340741 10.835979 43.524515 28.715344 85.243034 52.915696 122.98836 20.046561 24.742152 49.484303 40.093122 81.089242 42.621516-92.467019-76.032451-99.149206-212.926984-101.316402-228.277954z m406.349206-70.072663c-0.361199-11.016578-7.765785-20.40776-18.240564-23.297354-10.655379-3.070194-16.795767 18.421164-20.046561 37.022927 1.625397 4.334392 2.708995 8.849383 3.611993 13.183774 10.835979-9.932981 22.394356-18.962963 34.675132-26.909347z m103.122399-167.957672c-3.431393 32.327337 40.273721 6.682187 46.775308 4.514991l-1.625396-10.474779c-4.153792-10.655379-6.682187-22.033157-7.585186-33.410935-19.324162 4.334392-34.133333 19.865961-37.564726 39.370723z m-278.123457 0c0 29.618342 50.206702 29.076543 68.447266 17.518166-9.932981-16.795767-16.434568-35.216931-19.143562-54.360494l-0.3612-0.902998c0-0.1806-48.942504 6.501587-48.942504 37.745326z m-349.099118 114.861376c-1.444797 1.444797-2.889594 2.889594-4.514991 3.973192 0.902998-10.835979 5.598589-20.949559 13.544973-28.534744 1.805996-1.625397 3.792593-3.070194 5.959788-4.153792 9.029982-4.334392 19.324162-4.695591 28.534745-1.083598 16.073369 3.973192 31.785538 10.11358 46.233509 18.240564-7.043386-24.200353-19.143563-46.23351-44.246913-48.942504-40.99612-3.431393-76.93545 27.089947-80.186244 68.086067-0.1806 1.264198-0.1806 2.528395-0.180599 3.792592 0 35.216931 13.183774 69.350265 37.203527 95.356614-22.394356-38.287125-10.47478-68.989065-2.347795-106.734391zM554.711817 89.216226c72.962257-19.143563 149.717108-16.253968 221.053968 8.126984-5.598589-4.514991-11.738977-8.488183-17.879365-12.100176-68.989065-39.009524-186.017637-68.266667-259.702293-31.604939-59.236684 29.618342-139.422928 78.380247-166.693474 140.506526 11.197178 29.618342 12.822575 61.945679 4.514991 92.647619 32.507937-100.232804 115.764374-175.362257 218.706173-197.576014z m220.331569 120.279365c0.1806 6.140388 1.805996 12.280776 4.514991 17.879365 0 0 3.250794-3.611993 8.488184-8.488184 1.083598-26.909347 31.604938-42.079718 67.002469-31.604938-8.126984-10.47478-16.434568-21.491358-24.922751-32.507936-30.160141 0.722399-54.179894 24.742152-55.082893 54.721693z m-332.66455 85.062434c2.708995 7.223986 3.070194 13.544974 7.765785 5.05679-3.250794-0.722399-5.959788-2.528395-7.765785-5.05679z" fill="#F7E4CD" p-id="8863"></path><path d="M440.21164 289.681834c-1.083598-9.391182 0.361199-18.962963 4.153792-27.631746 14.989771-37.203527 50.206702-62.126279 90.299824-64.112875 5.23739 0.902998 10.11358 2.528395 14.628571 5.23739-11.016578-19.685362-32.869136-36.481129-76.75485-6.862786-48.942504 33.410935-44.427513 80.005644-35.57813 89.035626 1.264198 1.083598 2.347795 2.708995 3.250793 4.334391z" fill="#F7E4CD" p-id="8864"></path><path d="M140.958025 927.920988l192.519224-85.965432c-14.086772-16.434568-39.370723-47.497707-43.885715-46.05291-73.865256 32.869136-142.854321 75.671252-205.161199 127.50335 11.197178 24.200353 21.130159 48.942504 29.618342 74.045856h42.621517c-4.695591-23.297354-10.11358-46.414109-15.712169-69.530864z" fill="#49728B" p-id="8865"></path><path d="M914.285714 998.53545c7.946384-24.742152 14.628571-49.845503 20.046561-75.310053 1.264198-6.682187 3.792593-17.337566 5.779189-27.631746l-105.470194-78.380247c20.40776 44.969312 22.033157 96.259612 4.695591 142.673721 3.611993 13.544974 16.615168 18.782363 21.852557 31.06314-1.264198 2.167196-2.528395 4.334392-3.611993 6.501587h53.999295c1.083598 0 1.986596 0.361199 2.708994 1.083598z m-93.550617-45.149912c3.070194-4.153792 5.05679-8.849383 6.320988-13.906173-1.083598 5.05679-3.250794 9.752381-6.320988 13.906173z m-29.979541-150.981305c5.779189-3.070194 12.280776-4.334392 18.782363-3.792593l-8.668783-6.501587c-3.973192 2.889594-7.404586 6.501587-10.11358 10.29418z" fill="#335061" p-id="8866"></path><path d="M942.09806 873.199295c-2.708995-19.685362-29.257143-34.133333-42.802116-46.23351-24.922751-22.394356-40.634921-42.079718-66.64127-63.029277-9.210582 10.835979-20.046561 20.40776-31.785538 28.354145l8.668783 6.501587c10.835979 1.805996 20.22716 8.668783 25.103351 18.601764l105.470194 78.380246c1.444797-7.585185 2.167196-15.17037 1.986596-22.574955z" fill="#49728B" p-id="8867"></path><path d="M679.325573 994.562257c0 0.902998 0.1806 1.805996 0.361199 2.708995h17.518166a12.100176 12.100176 0 0 1 24.200353 0h28.354145v-1.083598c-14.447972-7.765785-29.076543-14.989771-43.885715-21.671957-15.35097-6.501587-26.548148 20.046561-26.548148 20.04656z" fill="#FFFFFF" p-id="8868"></path><path d="M679.325573 994.562257s11.016578-26.728748 26.728748-20.04656c11.738977 5.05679 33.591534 16.434568 43.885714 21.671957 0.361199-8.126984 0.722399-16.073369 1.264198-24.200352-22.574956 1.444797-35.216931-20.40776-50.929101-22.033157-13.906173-1.444797-25.64515 15.892769-43.524515 8.307583-4.153792 4.514991-7.946384 9.391182-12.100176 13.906173 6.501587 7.946384 12.461376 16.253968 17.879365 25.103351h17.337566l-0.541799-2.708995z" fill="#DCD9D8" p-id="8869"></path><path d="M457.729806 847.192945c-28.354145 0-56.34709-5.05679-82.895238-14.628571-4.153792 3.973192-4.153792 10.47478-0.1806 14.628571l0.902998 0.902999c24.922751 10.835979 51.2903 17.879365 78.199648 21.130158 2.528395-7.223986 3.792593-14.628571 3.973192-22.033157z" fill="#FFFFFF" p-id="8870"></path><path d="M452.131217 880.062081c0-3.792593 0.541799-7.404586 1.444797-11.016578-26.909347-3.250794-53.276896-10.29418-78.199647-21.130159 22.033157 17.518166 48.581305 28.715344 76.75485 32.146737z" fill="#DCD9D8" p-id="8871"></path><path d="M827.056085 939.479365c2.528395-10.47478 3.431393-21.130159 2.708994-31.785538-0.722399-16.976367-3.250794-33.952734-7.223986-50.387301-12.280776-1.444797-24.742152-0.902998-36.842328 1.805996-11.016578 2.167196-22.213757 4.514991-24.380952 17.879365-2.167196 13.364374 4.514991 20.046561-2.167196 31.243739-6.682187 11.197178-17.879365 4.514991-28.895943 11.016579-7.585185 4.514991-2.708995 16.253968 1.083598 23.297354 29.437743 6.682187 59.597884 10.47478 89.938624 11.016579 2.528395-4.514991 4.695591-9.210582 5.779189-14.086773z m-330.858554 55.805291l1.805996 4.695591c0.541799 1.444797 1.083598 3.431393 1.625397 5.05679l-0.361199-4.334391-3.070194-5.41799z" fill="#D33833" p-id="8872"></path><path d="M642.483245 947.967549l0.722399-19.324163c-11.558377 3.611993-24.200353 2.708995-35.036332-2.708994-34.313933-18.601764-1.805996-13.183774-13.906173-37.925926-13.906173-7.404586-29.076543-11.919577-44.788712-13.364374-44.969312 0-62.126279-9.029982-57.250088 42.802116 2.528395 27.812346 4.87619 55.624691 7.043386 83.437037 3.611993 6.862787 6.862787 13.003175 9.571781 18.240565 23.477954-2.347795 46.23351-9.210582 67.002469-20.407761 22.936155-15.712169 45.330511-32.688536 66.64127-50.7485z m16.976367-26.548149c0.722399 3.250794 1.625397 6.862787 2.347795 11.377778 12.461376 6.682187 27.992945 1.986596 34.675133-10.474779 6.682187-12.461376 1.986596-27.992945-10.47478-34.675133-2.708995-1.444797-5.598589-2.347795-8.488183-2.708994 2.347795 14.628571-4.87619 29.437743-18.059965 36.481128z" fill="#D33833" p-id="8873"></path><path d="M729.893474 919.071605c11.016578-6.682187 22.213757 0 28.895944-11.016579 6.682187-11.016578 0-17.879365 2.167196-31.243739s13.364374-15.53157 24.380952-17.879365c12.100176-2.708995 24.561552-3.250794 36.842328-1.805996-1.444797-9.210582-5.959788-17.518166-12.641975-23.839154-27.270547-15.892769-75.129453 30.160141-97.52381 39.912523l-2.167195 0.902998c3.250794 6.320988 5.417989 13.364374 6.320987 20.40776 4.87619-1.264198 9.932981-1.805996 14.989771-1.625397 3.431393 0.1806 6.682187 0.541799 10.11358 1.264198l4.876191 1.083597c3.070194 0.902998 5.959788 1.986596 8.849382 3.431394-9.391182 0.361199-18.601764 1.625397-27.631746 3.611993-2.528395 0.722399-5.05679 1.986596-7.223986 3.431393-1.083598 11.016578-1.444797 21.852557-1.264197 32.869136 3.792593 1.083598 7.765785 2.167196 11.738977 3.070194-3.611993-6.320988-8.307584-18.059965-0.722399-22.574956z m-230.445149 85.965432c1.805996 6.682187 3.431393 12.641975 9.210582 14.086773-2.708995-5.23739-5.959788-11.377778-9.571782-18.240565l0.3612 4.153792z m-7.404586-87.590829c-4.695591-51.832099 12.461376-42.802116 57.250088-42.802116 15.712169 1.444797 30.88254 5.959788 44.788713 13.364374 12.100176 24.742152-20.22716 19.324162 13.906173 37.925926 11.016578 5.417989 23.477954 6.320988 35.036331 2.708994v-2.347795c-10.47478-5.23739-21.852557-8.849383-33.410935-10.655379-4.514991-0.722399-9.029982-1.083598-13.544973-1.264198 3.431393-1.625397 7.043386-2.889594 10.655379-3.792592 11.558377-1.805996 22.574956-5.23739 33.049735-10.29418 0-2.889594 0.1806-5.779189 0.3612-8.668783-2.528395-0.1806-4.87619-0.541799-7.223986-0.902999-2.167196-0.361199-4.334392-0.902998-6.501587-1.625397-3.792593-1.264198-7.404586-2.708995-10.835979-4.69559-6.501587-3.611993-12.100176-7.946384-19.143563-11.738977-27.631746-14.809171-57.250088-25.64515-88.132628-32.146738-33.591534-6.501587-33.952734 40.454321-32.507936 74.948854 0 3.611993 0.361199 7.043386 0.541799 10.29418 3.070194 24.019753 9.752381 47.497707 19.865961 69.530864l2.889594 5.41799c-2.167196-27.812346-4.514991-55.624691-7.043386-83.256438zM677.338977 884.938272c-7.765785 0.1806-15.17037 2.708995-21.310758 7.223985-0.541799 5.05679-0.361199 10.11358 0.180599 14.989771 0.361199 2.889594 1.083598 5.598589 1.805997 8.668783l1.083598 4.876191v0.541799c13.544974-6.862787 20.768959-21.491358 18.240564-36.300529z" fill="#EF3D3A" p-id="8874"></path><path d="M444.365432 261.869489c-3.792593 8.668783-5.23739 18.240564-4.153792 27.631746 0.361199 1.805996 1.264198 3.431393 2.167196 5.05679 1.805996 2.528395 4.514991 4.334392 7.765785 5.05679 18.240564-40.99612 48.581305-80.366843 109.082187-66.280071 6.140388-9.752381 3.070194-22.574956-6.682187-28.534744-1.083598-0.722399-2.167196-1.264198-3.250794-1.625397-4.514991-2.708995-9.391182-4.334392-14.628571-5.23739-40.093122 1.805996-75.310053 26.909347-90.299824 63.932276z m369.506878 126.600352c-1.083598 48.400705 74.948854 24.561552 86.507231-2.347795-16.434568-26.728748-30.70194-54.721693-42.802116-83.798236h-2.889594c-0.361199 4.87619-0.361199 9.752381 0 14.628571 0.902998 11.377778 3.431393 22.755556 7.585185 33.410935 3.431393 9.391182 7.585185 18.240564 11.016578 27.631746-14.447972 9.029982-42.982716 3.431393-59.417284 10.474779z m-194.50582 5.41799c-17.879365 17.337566-50.026102 2.889594-73.865255 1.805996-22.755556 35.93933 44.608113 42.802116 73.504056 34.313933 9.571781-3.973192 17.879365-10.835979 23.477954-19.504762 7.946384-22.574956-8.126984-32.507937-16.434568-40.63492-15.17037-20.40776-27.270547-42.982716-35.75873-66.82187-1.625397 5.23739-2.347795 10.835979-1.805996 16.253968 2.708995 19.143563 9.210582 37.745326 19.143562 54.360494 4.153792 7.765785 8.307584 14.628571 11.738977 20.227161z m61.223281 202.632804c58.875485 3.431393 117.028571-14.628571 163.262081-51.1097-1.805996-11.016578 13.183774-30.70194 9.029982-47.136508-1.444797-5.598589-14.267372-13.906173-22.213756-22.394356-37.022928-37.745326-68.266667-80.728042-93.008819-127.503351-1.986596-4.514991-3.070194-29.257143-16.615167-19.324163-1.625397 59.959083 42.982716 109.623986 76.213051 149.897708 16.253968 19.504762 35.75873 30.70194 17.879365 61.22328-29.257143 11.016578-76.213051 42.802116-116.667372 35.75873-13.906173-2.347795-16.795767-13.364374-19.143563-24.380952-0.902998-4.514991-2.167196-9.029982-3.611993-13.183774-0.541799-1.264198-1.083598-2.528395-1.625397-3.611993-13.183774 19.143563-10.47478 45.330511 6.501588 61.765079zM205.070899 442.469136c-2.167196 1.083598-3.973192 2.528395-5.779188 3.973192-7.765785 7.585185-12.641975 17.698765-13.544974 28.534744 1.625397-1.083598 3.250794-2.528395 4.514991-3.973192 5.598589-5.779189 11.377778-13.003175 21.852558-7.946384-11.738977 26.367549-9.210582 56.888889 6.862786 80.908642 0-26.728748-4.334392-72.601058 18.601764-71.336861 16.073369 0.902998 19.324162 35.216931 32.869136 42.982716 8.126984-30.70194-7.765785-62.487478-37.203528-74.407055-9.029982-3.431393-19.324162-3.070194-28.173545 1.264198z m558.23351 174.639859c-1.805996 12.822575-1.805996 26.006349 0 38.828924 49.123104-3.792593 91.564021-35.93933 108.359789-82.17284-33.049735 20.949559-69.892063 35.75873-108.359789 43.343916z m-14.628571 40.99612c0.541799-13.003175-0.541799-26.186949-2.889595-39.009524-53.818695 4.695591-108.179189-2.347795-159.108289-20.58836 17.518166 46.594709 95.898413 63.029277 161.997884 59.597884z m-169.04127-22.213757c-33.410935 0-5.23739 18.601764 0.361199 26.006349 11.919577 20.40776 27.812346 38.287125 46.955908 52.193298 40.454321 14.086772 84.701235 14.267372 125.336156 0.541799 9.029982-4.695591 16.073369-12.641975 19.685361-22.213756-76.032451 1.625397-166.151675 9.210582-192.338624-56.52769z" fill="#231F20" p-id="8875"></path><path d="M839.69806 997.451852c-8.668783-13.725573-22.213757-23.658554-38.106526-27.451147-11.377778-2.347795-23.116755-0.722399-33.591534 4.334392-0.361199 7.223986-0.722399 15.17037-1.083598 23.116755h72.781658z" fill="#81B0C4" p-id="8876"></path><path d="M730.435273 831.841975c-25.103351 2.167196-54.541093 13.725573-82.353439 15.35097-2.528395 0-5.05679 0.1806-7.585185 0.1806s-5.05679 0-7.223986-0.361199c-4.87619-0.361199-9.752381-1.444797-14.267372-2.708995-2.347795-0.722399-4.695591-1.625397-6.862787-2.528395 0 1.986596-2.528395 1.264198-3.070194 2.708995 5.598589 4.514991 11.558377 8.488183 17.698766 11.738977 5.417989 2.889594 11.377778 5.23739 17.337566 6.862786 9.752381 2.347795 19.865961 3.611993 29.798942 3.250794 3.611993 0 7.765785 0 11.919576-0.361199 15.35097-11.016578 28.715344-23.839153 44.608113-34.133334z" fill="#F0D6B7" p-id="8877"></path><path d="M624.965079 988.963668l-12.822575 8.488184h19.324163c-2.167196-2.889594-4.334392-5.598589-6.501588-8.488184z" fill="#81B0C4" p-id="8878"></path><path d="M98.336508 1015.331217v-12.280776c0-3.070194 2.528395-5.598589 5.598589-5.598589h10.29418c-8.488183-25.283951-18.421164-50.026102-29.618342-74.045856 62.126279-51.651499 131.295944-94.634215 205.161199-127.50335 4.334392-1.805996 29.618342 29.618342 43.885714 46.05291 2.708995 3.431393 5.598589 6.501587 8.849383 9.391181 35.93933 23.297354 73.684656 43.524515 112.87478 60.500882 3.792593 24.200353 9.571781 48.039506 17.337566 71.156261 1.444797 4.695591 2.889594 9.571781 4.334391 14.447972h5.959789c3.070194 0 5.598589 2.528395 5.598589 5.598589v5.779189h5.05679c3.070194 0 5.598589 2.528395 5.598589 5.598589v9.391181h61.765079v-9.391181c0-3.070194 2.528395-5.598589 5.598589-5.598589h28.534745v-5.779189c0-3.070194 2.528395-5.598589 5.598589-5.598589h11.558377l12.822575-8.488184c2.167196 2.708995 4.334392 5.598589 6.501587 8.488184h30.88254c-5.417989-8.668783-11.377778-17.156966-17.879365-25.103351 4.153792-4.514991 7.946384-9.391182 12.100176-13.906173 18.059965 7.585185 29.618342-9.932981 43.524515-8.307584 15.892769 1.625397 28.354145 23.477954 50.929101 22.033157-0.541799 8.126984-0.902998 16.073369-1.264198 24.200353v1.083598h17.337566c0.361199-7.946384 0.902998-15.712169 1.083598-23.116755 10.47478-5.05679 22.213757-6.682187 33.591535-4.334392 15.712169 3.792593 29.437743 13.725573 38.106525 27.451147h17.518166c1.264198-2.167196 2.528395-4.334392 3.611993-6.501587-5.23739-12.280776-18.059965-17.518166-21.852557-31.06314 17.337566-46.23351 15.53157-97.52381-4.695591-142.673721-4.87619-9.932981-14.267372-16.795767-25.103351-18.601764-6.501587-0.541799-13.003175 0.902998-18.782363 3.792593 2.889594-3.973192 6.320988-7.404586 10.11358-10.29418 11.738977-7.946384 22.574956-17.518166 31.785538-28.354145 26.006349 20.949559 41.718519 40.634921 66.64127 63.029277 13.544974 12.100176 40.273721 26.728748 42.802116 46.23351 0.361199 7.585185-0.361199 15.17037-1.986596 22.394356-1.805996 10.29418-4.334392 20.949559-5.779189 27.631746-5.417989 25.46455-12.100176 50.387302-20.046561 75.129453 1.625397 0.902998 2.528395 2.708995 2.708995 4.695591v20.76896h13.544974c9.391182-29.618342 18.601764-59.778483 27.992945-91.022223 10.655379-25.46455 16.615168-52.554497 17.518166-80.005643-2.889594-22.574956-38.106526-46.23351-56.52769-64.112875-10.29418-9.932981-58.333686-46.414109-61.042681-59.959083s19.504762-43.163316 26.728748-57.972487c9.391182-21.130159 16.976367-42.982716 22.755556-65.377072 37.745326-132.560141 41.537919-314.785185-12.461376-423.867372C865.704409 133.10194 827.236684 90.480423 782.086772 56.16649 697.927337-7.585185 542.069841-14.628571 440.57284 22.755556c-27.812346 9.029982-54.721693 20.58836-80.366844 34.313933-66.46067 39.009524-137.075132 65.015873-156.760493 143.576719-48.581305 21.852557-63.209877 84.159436-60.862081 156.038095 3.250794 14.809171 5.05679 29.798942 5.417989 44.788713-1.264198 6.682187-10.47478 15.35097-12.280776 19.685361-18.782363 56.34709-10.47478 118.292769 22.213757 167.957672 18.059965 27.089947 46.594709 45.330511 78.741446 50.567902 1.444797 21.310758 7.043386 41.899118 16.434568 61.22328 6.140388 13.725573 29.437743 38.106526 20.949559 55.624691-16.615168 14.086772-35.036332 26.006349-54.721693 35.397531-42.260317 25.46455-73.142857 40.99612-112.152381 69.169665-25.283951 18.240564-64.835273 20.58836-58.514286 62.487478 7.585185 31.243739 17.518166 61.945679 29.618342 91.925221 0.902998 2.889594 1.986596 5.598589 2.889594 8.488183h17.156967v-8.668783z m305.213404-929.185185c-1.805996 2.167196-3.792593 4.153792-5.779189 6.140388-11.919577 8.849383-23.477954 18.240564-34.494533 28.354144-13.725573 15.17037-28.895944 55.624691-46.955908 60.139683-9.029982 0.541799-18.240564 0.1806-27.270547-1.083598-5.779189 0.361199-11.558377 1.444797-17.156966 3.250794-12.822575 5.05679-26.186949 9.029982-39.551323 11.919576C259.611993 135.088536 345.035626 86.687831 411.496296 67.905467c3.611993-1.083598 6.862787 1.444797 9.932981 4.695591-0.361199 10.29418-10.835979 10.11358-17.879365 13.544974z m-87.22963 135.269136c11.016578 55.624691-20.58836 119.015168-7.043386 177.710052 4.514991 20.046561 20.40776 50.929101-4.876191 51.6515-3.070194-43.163316-40.634921-75.851852-83.798236-72.781658-10.835979 0.722399-21.491358 3.792593-31.243739 8.849382-2.708995 1.264198-5.417989 2.708995-7.946384 4.334392-3.611993-43.163316-9.752381-103.664198 19.685361-135.991534 28.534744-31.063139 67.905467-49.664903 109.985185-51.832099 2.347795 5.959788 4.153792 11.919577 5.23739 18.059965z m-123.891358 356.323104c-23.839153-25.82575-37.203527-59.778483-37.384127-94.995415 1.264198-40.99612 35.578131-73.323457 76.75485-72.059259 1.264198 0 2.528395 0.1806 3.792593 0.1806 24.922751 2.708995 37.022928 24.561552 44.246913 48.942504 1.986596 6.862787 3.611993 13.906173 5.056791 20.768959 18.421164 0.902998 45.149912-0.722399 53.818694-15.17037-1.264198-35.216931-17.518166-63.390476-16.434567-95.717813 2.528395-27.992945 7.223986-55.624691 14.267372-82.714638 8.307584-30.52134 6.682187-63.029277-4.514992-92.64762 27.270547-61.945679 107.45679-110.888183 166.693475-140.506525 73.504056-36.481129 190.352028-7.223986 259.702293 31.604938 6.320988 3.611993 12.280776 7.585185 17.879365 12.100177 20.40776 16.795767 38.467725 35.93933 53.999294 57.069488 8.488183 11.016578 16.795767 21.852557 24.922752 32.507937-35.397531-10.47478-65.738272 4.87619-67.00247 31.604938-0.1806 3.070194 0 5.959788 0.541799 9.029982 32.869136-29.979541 88.674427-0.361199 105.289595 32.869136 13.725573 40.454321 19.865961 83.256437 18.240564 126.058554 8.126984 110.707584-19.324162 221.234568-78.380247 315.146384-13.003175 23.297354-29.798942 44.066314-49.845502 61.40388-52.193298 36.481129-131.295944 69.711464-199.201411 46.955909-89.577425-30.160141-130.392945-89.758025-179.696649-158.205291 5.959788 37.745326 25.103351 72.059259 53.818695 97.16261 21.671958 27.089947 48.761905 49.303704 79.644444 65.015873-24.561552-5.779189-62.126279-7.585185-72.601058 14.628571-18.962963-1.083598-37.925926-3.070194-56.708289-5.959788-31.785538-2.528395-61.042681-17.879365-81.089242-42.621517-24.200353-37.925926-42.079718-79.463845-52.915697-122.98836-2.708995-9.932981-4.153792-20.22716-4.514991-30.34074 3.250794-17.518166 34.313933-25.103351 21.852557-49.484304-22.574956-0.1806-27.631746 20.58836-48.400705 22.574956-19.865961 1.083598-39.009524-7.043386-51.832099-22.213756zM659.279012 920.697002l-1.083598-4.876191c-0.722399-2.889594-1.264198-5.779189-1.805996-8.668783-0.722399-5.05679-0.722399-10.11358-0.1806-14.989771 6.140388-4.514991 13.544974-7.223986 21.310759-7.223985 14.086772 1.986596 23.839153 14.809171 21.852557 28.895943-1.986596 14.086772-14.809171 23.839153-28.895944 21.852557-3.070194-0.361199-5.959788-1.444797-8.488183-2.708994-0.722399-3.792593-1.444797-7.585185-2.347795-11.377778l-0.3612-0.902998z m-284.625044-88.493827c26.548148 9.571781 54.721693 14.628571 82.895238 14.628571 0 7.585185-1.444797 14.989771-4.153792 21.852557-0.902998 3.611993-1.444797 7.223986-1.444797 11.016579-27.992945-3.611993-54.541093-14.628571-76.75485-32.327337-4.334392-3.792593-4.87619-10.29418-1.083598-14.628571l0.541799-0.541799z m269.454674 30.70194c-5.959788-1.625397-11.919577-3.973192-17.337566-6.862787-6.320988-3.431393-12.100176-7.404586-17.698766-11.738977 0.361199-1.625397 2.889594-0.902998 3.070194-2.708995 2.167196 0.902998 4.514991 1.805996 6.862787 2.528395 4.695591 1.444797 9.391182 2.347795 14.267372 2.708995 4.87619 0.361199 9.932981 0.541799 14.809171 0.1806 27.812346-1.625397 57.250088-13.003175 82.353439-15.35097-15.892769 10.29418-29.257143 23.297354-44.608113 34.313933-3.973192 0.1806-7.946384 0.361199-11.919576 0.361199-10.11358 0.361199-20.046561-0.722399-29.798942-3.070194v-0.361199z m-68.447266 135.449735c-20.768959 11.197178-43.524515 18.240564-67.002469 20.40776-5.779189-1.264198-7.223986-7.223986-9.210582-14.086772-0.902998-3.250794-1.986596-6.501587-3.250794-9.752381-10.11358-22.033157-16.795767-45.511111-19.865961-69.530864 0-3.250794-0.361199-6.682187-0.541799-10.29418-1.444797-34.494533-1.083598-81.269841 32.507936-74.948854 30.70194 6.501587 60.320282 17.337566 88.132628 32.146737 7.043386 3.792593 12.641975 8.307584 19.143563 11.738977 3.431393 1.986596 7.043386 3.431393 10.835979 4.695591 2.167196 0.722399 4.334392 1.264198 6.501587 1.625397 2.347795 0.541799 4.87619 0.722399 7.223986 0.902998 0 2.889594-0.1806 5.779189-0.3612 8.668783-10.47478 5.05679-21.671958 8.488183-33.049735 10.29418-3.611993 0.902998-7.223986 2.167196-10.655379 3.792593 4.514991 0.1806 9.029982 0.722399 13.544973 1.264197 11.738977 1.805996 22.936155 5.23739 33.410935 10.65538v2.347795l-0.722398 19.324162c-21.310758 18.059965-43.524515 35.036332-66.64127 50.748501z m155.135097-56.16649c-3.973192-0.902998-7.946384-1.986596-11.738977-3.070194-0.1806-11.016578 0.361199-22.033157 1.264197-32.869136 2.167196-1.625397 4.695591-2.708995 7.223986-3.431393 9.029982-1.986596 18.421164-3.250794 27.631746-3.611993-2.889594-1.444797-5.779189-2.528395-8.849383-3.431394-1.625397-0.361199-3.250794-0.902998-4.87619-1.083597-3.250794-0.722399-6.682187-1.264198-10.11358-1.444798-5.05679-0.1806-9.932981 0.1806-14.809171 1.444798-0.902998-7.043386-3.070194-14.086772-6.320988-20.407761l2.167196-0.902998c22.213757-9.752381 70.072663-55.985891 97.523809-39.912522 6.862787 6.320988 11.377778 14.628571 12.641975 23.839154 4.153792 16.434568 6.501587 33.410935 7.223986 50.387301 0.722399 10.655379-0.1806 21.310758-2.708994 31.785538-1.083598 5.05679-3.250794 9.752381-6.320988 13.906173-30.160141-0.541799-60.320282-4.334392-89.938624-11.197178z" fill="#231F20" p-id="8879"></path><path d="M568.07619 616.567196c-22.574956-11.016578-38.648325-4.87619-41.537918-1.083598-5.598589 7.223986 5.959788 47.678307 5.959788 47.678307l11.016578 2.167196c-2.167196-44.246914 24.561552-48.761905 24.561552-48.761905z" fill="#F7E4CD" p-id="8880"></path><path d="M709.305115 985.893474c-6.501587 0-11.919577 5.23739-12.100177 11.738977h24.380953c-0.361199-6.682187-5.779189-11.738977-12.280776-11.738977z" fill="#1D1919" p-id="8881"></path><path d="M499.087125 1014.428219c0-3.070194-2.528395-5.598589-5.598589-5.598589h-5.05679v6.501587c0 3.070194-2.528395 5.598589-5.598589 5.598589H103.935097c-3.070194 0-5.598589-2.528395-5.598589-5.598589v8.488183h400.750617v-9.391181z m412.308995 6.501587H600.584127c-3.070194 0-5.598589-2.528395-5.598589-5.598589v-6.501587h-28.534744c-3.070194 0-5.598589 2.528395-5.598589 5.598589v9.391181h355.961904v-8.488183c0 3.070194-2.347795 5.598589-5.417989 5.598589z" fill="#231F20" p-id="8882"></path><path d="M103.935097 1020.929806h379.07866c3.070194 0 5.598589-2.528395 5.598589-5.598589v-12.280776c0-3.070194-2.528395-5.598589-5.598589-5.598589H103.935097c-3.070194 0-5.598589 2.528395-5.598589 5.598589v12.280776c0 3.070194 2.347795 5.598589 5.598589 5.598589z m491.050441-5.598589c0 3.070194 2.528395 5.598589 5.598589 5.598589h310.811993c3.070194 0 5.598589-2.528395 5.598589-5.598589v-12.280776c0-1.986596-1.083598-3.611993-2.708995-4.695591-0.902998-0.541799-1.986596-0.902998-2.889594-0.902998H600.584127c-3.070194 0-5.598589 2.528395-5.598589 5.598589v12.280776z" fill="#231F20" p-id="8883"></path></svg>